<svg width="162" height="39" viewBox="0 0 162 39" fill="none" xmlns="http://www.w3.org/2000/svg">
    <path d="M10.1054 20.771C8.74132 19.9969 7.37286 19.2226 5.99999 18.4481C5.27603 18.0395 4.84342 17.8071 4.70216 17.7507C4.19549 17.5484 3.68023 17.4722 3.15639 17.5222C3.00679 17.537 2.66713 17.6152 2.13741 17.7566C2.25463 17.6799 2.36867 17.6102 2.47952 17.5474C6.22684 15.4265 9.83511 13.3897 13.3043 11.437C14.6198 10.6966 16.2487 10.9177 17.3295 11.9437C18.2462 12.8133 18.5677 14.1428 18.1219 15.3513C17.8428 16.1081 17.3148 16.7061 16.5379 17.1453C14.4087 18.3501 12.2645 19.5587 10.1054 20.771Z" fill="#FF2C25"/>
    <path d="M10.0638 20.6992C12.269 21.9451 14.4688 23.1919 16.6631 24.4398C17.1666 24.7263 17.5578 25.1066 17.8367 25.5808C18.4308 26.5916 18.4779 27.629 17.9778 28.6931C17.7768 29.121 17.4871 29.4831 17.1087 29.7795C15.9611 30.6785 14.5082 30.7928 13.2297 30.0672C9.52578 27.9665 5.78961 25.8568 2.02116 23.7382C1.52602 23.4597 1.18633 23.2296 1.00207 23.0477C0.0790463 22.1354 -0.254985 20.8172 0.205417 19.5791C0.535507 18.6909 1.15381 18.0522 2.06033 17.6632C2.59241 17.5207 2.93359 17.442 3.08385 17.4271C3.61003 17.3767 4.12758 17.4535 4.63651 17.6572C4.7784 17.714 5.21293 17.9481 5.94012 18.3596C7.31911 19.1397 8.69366 19.9196 10.0638 20.6992Z" fill="#2685FB"/>
    <g opacity="0.991">
        <mask id="path-3-outside-1_83_3" maskUnits="userSpaceOnUse" x="24" y="0" width="39" height="39" fill="black">
            <rect fill="white" x="24" width="39" height="39"/>
            <path fill-rule="evenodd" clip-rule="evenodd" d="M41.1386 1C41.4115 1.02077 41.6832 1.02077 41.9542 1C44.1733 1.1318 46.1274 1.91065 47.8166 3.33661C48.0853 3.57627 48.3411 3.82853 48.5842 4.09341C51.1344 3.6202 53.501 4.04906 55.6844 5.37996C57.6479 6.67352 58.9816 8.43623 59.6855 10.6681C60.2123 12.5136 60.1771 14.3362 59.58 16.1359C61.6148 18.4788 62.3665 21.1717 61.8348 24.2148C61.2144 26.9748 59.6857 29.0811 57.2484 30.534C56.983 30.6585 56.7144 30.7909 56.4424 30.9313C56.3933 30.9268 56.3484 30.9457 56.3081 30.9881C55.9821 31.1101 55.6495 31.2299 55.3102 31.3476C55.2882 31.3294 55.269 31.3358 55.2527 31.3665C55.2047 31.3548 55.16 31.3674 55.1183 31.4043C55.0836 31.3969 55.0518 31.3969 55.0224 31.4043C55.0045 31.4389 54.9823 31.4454 54.9552 31.4232C54.7952 31.4813 54.6353 31.5192 54.4755 31.5368C54.4471 31.694 54.3991 31.8516 54.3316 32.0098C53.1376 34.8523 51.0555 36.7286 48.0853 37.6384C47.1058 37.8978 46.0825 38.0176 45.0149 37.9979C42.8331 37.8712 40.9012 37.1017 39.2196 35.6897C38.9446 35.4437 38.6823 35.1851 38.4328 34.914C38.0943 34.9596 37.752 35.0131 37.4062 35.0748C34.6402 35.2865 32.2063 34.4981 30.1045 32.7098C28.0692 30.8367 27.0201 28.519 26.9574 25.7567C26.9658 24.7549 27.1257 23.79 27.4371 22.862C25.8337 21.0765 25.0213 18.9953 25 16.6184C25.0428 14.0406 25.9702 11.8301 27.7825 9.98697C29.1364 8.67071 30.7226 7.83193 32.5416 7.47061C32.7941 6.66345 33.1557 5.90666 33.6258 5.20022C34.9434 3.29898 36.7121 2.02188 38.9318 1.36894C39.632 1.18464 40.3612 1.07112 41.1194 1.02838C41.1302 1.02113 41.1365 1.01167 41.1386 1ZM41.2537 3.45959C42.8242 3.43333 44.2571 3.84641 45.5522 4.69885C45.7073 4.80932 45.8545 4.92914 45.9936 5.05832C43.4393 6.51293 40.887 7.96346 38.3369 9.40991C37.9306 9.65906 37.7259 10.0217 37.7228 10.4978C37.7259 10.6065 37.7322 10.7137 37.742 10.8194C37.7261 14.1486 37.7165 17.4785 37.7132 20.8092C36.72 20.2264 35.719 19.6558 34.71 19.0969C34.6452 19.0604 34.5907 19.0131 34.5469 18.955C34.5341 16.0098 34.5341 13.0646 34.5469 10.1194C34.6271 8.59531 35.1387 7.23308 36.0821 6.0327C37.1654 4.75926 38.5311 3.94884 40.1791 3.60149C40.5376 3.53527 40.8958 3.48797 41.2537 3.45959ZM50.1194 6.37326C51.692 6.2889 53.1504 6.68305 54.4947 7.55575C56.0867 8.66221 57.0749 10.179 57.4595 12.106C57.5911 12.8773 57.5911 13.6467 57.4595 14.4142C57.1941 14.2477 56.9287 14.0963 56.6631 13.9601C54.4753 12.703 52.2942 11.4543 50.1194 10.214C49.9266 10.1063 49.7281 10.0085 49.5245 9.92075C49.2518 9.84949 48.9832 9.86211 48.7186 9.95859C45.6497 11.6826 42.5698 13.4327 39.4787 15.2089C39.4658 14.0169 39.4658 12.825 39.4787 11.633C39.4877 11.6059 39.5036 11.5839 39.5267 11.5668C41.7208 10.3275 43.9084 9.07883 46.0896 7.82063C46.5952 7.53354 47.1068 7.25604 47.6247 6.98816C48.425 6.63326 49.2564 6.4283 50.1194 6.37326ZM32.0426 10.1383C32.0586 13.093 32.0682 16.0508 32.0714 19.0118C32.1211 19.4403 32.3418 19.7587 32.7335 19.9672C35.7491 21.6757 38.7556 23.3847 41.7527 25.0945C40.717 25.6863 39.6807 26.2793 38.6439 26.873C38.6055 26.8857 38.5672 26.8857 38.5288 26.873C38.2824 26.7294 38.0329 26.5907 37.7804 26.4568C35.4005 25.094 33.0209 23.7317 30.6418 22.3701C28.893 21.1902 27.8664 19.5599 27.5618 17.4793C27.3126 15.108 28.0706 13.0993 29.8358 11.4533C30.4998 10.8988 31.2355 10.4605 32.0426 10.1383ZM48.4115 12.106C48.6692 12.2282 48.9154 12.3669 49.1503 12.5222C50.9047 13.4998 52.6605 14.4994 54.4179 15.521C55.012 15.8391 55.6006 16.1671 56.1834 16.5049C58.3271 17.8969 59.4401 19.8615 59.5224 22.3984C59.4854 24.1627 58.8744 25.7142 57.6898 27.0527C56.9226 27.8674 56.0111 28.4666 54.9552 28.8501C54.9585 25.9049 54.9552 22.9598 54.9456 20.0145C54.8925 19.5466 54.6526 19.2091 54.226 19.0023C51.2357 17.3106 48.2484 15.6141 45.2644 13.9128C46.3166 13.3154 47.3657 12.7131 48.4115 12.106ZM43.4989 14.9061C44.856 15.6709 46.2024 16.4403 47.5384 17.2144C47.5512 18.7406 47.5512 20.2667 47.5384 21.793C46.1982 22.5672 44.8549 23.3367 43.5085 24.1012C42.1628 23.3369 40.8195 22.5674 39.4787 21.793C39.4658 20.2667 39.4658 18.7406 39.4787 17.2144C40.8258 16.439 42.166 15.6695 43.4989 14.9061ZM49.2751 18.1982C50.3472 18.794 51.4059 19.3994 52.451 20.0145C52.4638 23.0417 52.4638 26.0689 52.451 29.0961C52.3471 30.4246 51.8993 31.6355 51.1077 32.7287C49.7581 34.4588 47.9638 35.3953 45.725 35.5383C44.1405 35.5639 42.7012 35.1414 41.4073 34.2707C41.2687 34.1678 41.1344 34.0607 41.0043 33.9491C43.5519 32.5195 46.0754 31.0846 48.5746 29.6448C49.0448 29.4134 49.2847 29.0287 49.2942 28.4907C49.3004 25.0595 49.2941 21.6288 49.2751 18.1982ZM47.5096 23.7985C47.5351 24.3881 47.548 24.984 47.548 25.5864C47.5447 26.1824 47.5416 26.7784 47.5384 27.3744C47.5313 27.3918 47.5217 27.4075 47.5096 27.4217C44.8902 28.9175 42.2741 30.4059 39.661 31.8868C38.3108 32.5586 36.9067 32.7824 35.4488 32.5584C35.4296 32.5647 35.4104 32.5711 35.3913 32.5774C32.6813 32.0484 30.8295 30.5253 29.8358 28.0082C29.8422 28.002 29.8487 27.9955 29.855 27.9893C29.4513 26.884 29.352 25.752 29.5576 24.5931C32.1192 26.0659 34.7002 27.5384 37.3006 29.011C37.8205 29.22 38.297 29.1476 38.7303 28.7934C39.9536 28.121 41.1689 27.4334 42.3763 26.7311C44.0662 25.7838 45.7771 24.8064 47.5096 23.7985Z"/>
        </mask>
        <path fill-rule="evenodd" clip-rule="evenodd" d="M41.1386 1C41.4115 1.02077 41.6832 1.02077 41.9542 1C44.1733 1.1318 46.1274 1.91065 47.8166 3.33661C48.0853 3.57627 48.3411 3.82853 48.5842 4.09341C51.1344 3.6202 53.501 4.04906 55.6844 5.37996C57.6479 6.67352 58.9816 8.43623 59.6855 10.6681C60.2123 12.5136 60.1771 14.3362 59.58 16.1359C61.6148 18.4788 62.3665 21.1717 61.8348 24.2148C61.2144 26.9748 59.6857 29.0811 57.2484 30.534C56.983 30.6585 56.7144 30.7909 56.4424 30.9313C56.3933 30.9268 56.3484 30.9457 56.3081 30.9881C55.9821 31.1101 55.6495 31.2299 55.3102 31.3476C55.2882 31.3294 55.269 31.3358 55.2527 31.3665C55.2047 31.3548 55.16 31.3674 55.1183 31.4043C55.0836 31.3969 55.0518 31.3969 55.0224 31.4043C55.0045 31.4389 54.9823 31.4454 54.9552 31.4232C54.7952 31.4813 54.6353 31.5192 54.4755 31.5368C54.4471 31.694 54.3991 31.8516 54.3316 32.0098C53.1376 34.8523 51.0555 36.7286 48.0853 37.6384C47.1058 37.8978 46.0825 38.0176 45.0149 37.9979C42.8331 37.8712 40.9012 37.1017 39.2196 35.6897C38.9446 35.4437 38.6823 35.1851 38.4328 34.914C38.0943 34.9596 37.752 35.0131 37.4062 35.0748C34.6402 35.2865 32.2063 34.4981 30.1045 32.7098C28.0692 30.8367 27.0201 28.519 26.9574 25.7567C26.9658 24.7549 27.1257 23.79 27.4371 22.862C25.8337 21.0765 25.0213 18.9953 25 16.6184C25.0428 14.0406 25.9702 11.8301 27.7825 9.98697C29.1364 8.67071 30.7226 7.83193 32.5416 7.47061C32.7941 6.66345 33.1557 5.90666 33.6258 5.20022C34.9434 3.29898 36.7121 2.02188 38.9318 1.36894C39.632 1.18464 40.3612 1.07112 41.1194 1.02838C41.1302 1.02113 41.1365 1.01167 41.1386 1ZM41.2537 3.45959C42.8242 3.43333 44.2571 3.84641 45.5522 4.69885C45.7073 4.80932 45.8545 4.92914 45.9936 5.05832C43.4393 6.51293 40.887 7.96346 38.3369 9.40991C37.9306 9.65906 37.7259 10.0217 37.7228 10.4978C37.7259 10.6065 37.7322 10.7137 37.742 10.8194C37.7261 14.1486 37.7165 17.4785 37.7132 20.8092C36.72 20.2264 35.719 19.6558 34.71 19.0969C34.6452 19.0604 34.5907 19.0131 34.5469 18.955C34.5341 16.0098 34.5341 13.0646 34.5469 10.1194C34.6271 8.59531 35.1387 7.23308 36.0821 6.0327C37.1654 4.75926 38.5311 3.94884 40.1791 3.60149C40.5376 3.53527 40.8958 3.48797 41.2537 3.45959ZM50.1194 6.37326C51.692 6.2889 53.1504 6.68305 54.4947 7.55575C56.0867 8.66221 57.0749 10.179 57.4595 12.106C57.5911 12.8773 57.5911 13.6467 57.4595 14.4142C57.1941 14.2477 56.9287 14.0963 56.6631 13.9601C54.4753 12.703 52.2942 11.4543 50.1194 10.214C49.9266 10.1063 49.7281 10.0085 49.5245 9.92075C49.2518 9.84949 48.9832 9.86211 48.7186 9.95859C45.6497 11.6826 42.5698 13.4327 39.4787 15.2089C39.4658 14.0169 39.4658 12.825 39.4787 11.633C39.4877 11.6059 39.5036 11.5839 39.5267 11.5668C41.7208 10.3275 43.9084 9.07883 46.0896 7.82063C46.5952 7.53354 47.1068 7.25604 47.6247 6.98816C48.425 6.63326 49.2564 6.4283 50.1194 6.37326ZM32.0426 10.1383C32.0586 13.093 32.0682 16.0508 32.0714 19.0118C32.1211 19.4403 32.3418 19.7587 32.7335 19.9672C35.7491 21.6757 38.7556 23.3847 41.7527 25.0945C40.717 25.6863 39.6807 26.2793 38.6439 26.873C38.6055 26.8857 38.5672 26.8857 38.5288 26.873C38.2824 26.7294 38.0329 26.5907 37.7804 26.4568C35.4005 25.094 33.0209 23.7317 30.6418 22.3701C28.893 21.1902 27.8664 19.5599 27.5618 17.4793C27.3126 15.108 28.0706 13.0993 29.8358 11.4533C30.4998 10.8988 31.2355 10.4605 32.0426 10.1383ZM48.4115 12.106C48.6692 12.2282 48.9154 12.3669 49.1503 12.5222C50.9047 13.4998 52.6605 14.4994 54.4179 15.521C55.012 15.8391 55.6006 16.1671 56.1834 16.5049C58.3271 17.8969 59.4401 19.8615 59.5224 22.3984C59.4854 24.1627 58.8744 25.7142 57.6898 27.0527C56.9226 27.8674 56.0111 28.4666 54.9552 28.8501C54.9585 25.9049 54.9552 22.9598 54.9456 20.0145C54.8925 19.5466 54.6526 19.2091 54.226 19.0023C51.2357 17.3106 48.2484 15.6141 45.2644 13.9128C46.3166 13.3154 47.3657 12.7131 48.4115 12.106ZM43.4989 14.9061C44.856 15.6709 46.2024 16.4403 47.5384 17.2144C47.5512 18.7406 47.5512 20.2667 47.5384 21.793C46.1982 22.5672 44.8549 23.3367 43.5085 24.1012C42.1628 23.3369 40.8195 22.5674 39.4787 21.793C39.4658 20.2667 39.4658 18.7406 39.4787 17.2144C40.8258 16.439 42.166 15.6695 43.4989 14.9061ZM49.2751 18.1982C50.3472 18.794 51.4059 19.3994 52.451 20.0145C52.4638 23.0417 52.4638 26.0689 52.451 29.0961C52.3471 30.4246 51.8993 31.6355 51.1077 32.7287C49.7581 34.4588 47.9638 35.3953 45.725 35.5383C44.1405 35.5639 42.7012 35.1414 41.4073 34.2707C41.2687 34.1678 41.1344 34.0607 41.0043 33.9491C43.5519 32.5195 46.0754 31.0846 48.5746 29.6448C49.0448 29.4134 49.2847 29.0287 49.2942 28.4907C49.3004 25.0595 49.2941 21.6288 49.2751 18.1982ZM47.5096 23.7985C47.5351 24.3881 47.548 24.984 47.548 25.5864C47.5447 26.1824 47.5416 26.7784 47.5384 27.3744C47.5313 27.3918 47.5217 27.4075 47.5096 27.4217C44.8902 28.9175 42.2741 30.4059 39.661 31.8868C38.3108 32.5586 36.9067 32.7824 35.4488 32.5584C35.4296 32.5647 35.4104 32.5711 35.3913 32.5774C32.6813 32.0484 30.8295 30.5253 29.8358 28.0082C29.8422 28.002 29.8487 27.9955 29.855 27.9893C29.4513 26.884 29.352 25.752 29.5576 24.5931C32.1192 26.0659 34.7002 27.5384 37.3006 29.011C37.8205 29.22 38.297 29.1476 38.7303 28.7934C39.9536 28.121 41.1689 27.4334 42.3763 26.7311C44.0662 25.7838 45.7771 24.8064 47.5096 23.7985Z" fill="#848484"/>
        <path fill-rule="evenodd" clip-rule="evenodd" d="M41.1386 1C41.4115 1.02077 41.6832 1.02077 41.9542 1C44.1733 1.1318 46.1274 1.91065 47.8166 3.33661C48.0853 3.57627 48.3411 3.82853 48.5842 4.09341C51.1344 3.6202 53.501 4.04906 55.6844 5.37996C57.6479 6.67352 58.9816 8.43623 59.6855 10.6681C60.2123 12.5136 60.1771 14.3362 59.58 16.1359C61.6148 18.4788 62.3665 21.1717 61.8348 24.2148C61.2144 26.9748 59.6857 29.0811 57.2484 30.534C56.983 30.6585 56.7144 30.7909 56.4424 30.9313C56.3933 30.9268 56.3484 30.9457 56.3081 30.9881C55.9821 31.1101 55.6495 31.2299 55.3102 31.3476C55.2882 31.3294 55.269 31.3358 55.2527 31.3665C55.2047 31.3548 55.16 31.3674 55.1183 31.4043C55.0836 31.3969 55.0518 31.3969 55.0224 31.4043C55.0045 31.4389 54.9823 31.4454 54.9552 31.4232C54.7952 31.4813 54.6353 31.5192 54.4755 31.5368C54.4471 31.694 54.3991 31.8516 54.3316 32.0098C53.1376 34.8523 51.0555 36.7286 48.0853 37.6384C47.1058 37.8978 46.0825 38.0176 45.0149 37.9979C42.8331 37.8712 40.9012 37.1017 39.2196 35.6897C38.9446 35.4437 38.6823 35.1851 38.4328 34.914C38.0943 34.9596 37.752 35.0131 37.4062 35.0748C34.6402 35.2865 32.2063 34.4981 30.1045 32.7098C28.0692 30.8367 27.0201 28.519 26.9574 25.7567C26.9658 24.7549 27.1257 23.79 27.4371 22.862C25.8337 21.0765 25.0213 18.9953 25 16.6184C25.0428 14.0406 25.9702 11.8301 27.7825 9.98697C29.1364 8.67071 30.7226 7.83193 32.5416 7.47061C32.7941 6.66345 33.1557 5.90666 33.6258 5.20022C34.9434 3.29898 36.7121 2.02188 38.9318 1.36894C39.632 1.18464 40.3612 1.07112 41.1194 1.02838C41.1302 1.02113 41.1365 1.01167 41.1386 1ZM41.2537 3.45959C42.8242 3.43333 44.2571 3.84641 45.5522 4.69885C45.7073 4.80932 45.8545 4.92914 45.9936 5.05832C43.4393 6.51293 40.887 7.96346 38.3369 9.40991C37.9306 9.65906 37.7259 10.0217 37.7228 10.4978C37.7259 10.6065 37.7322 10.7137 37.742 10.8194C37.7261 14.1486 37.7165 17.4785 37.7132 20.8092C36.72 20.2264 35.719 19.6558 34.71 19.0969C34.6452 19.0604 34.5907 19.0131 34.5469 18.955C34.5341 16.0098 34.5341 13.0646 34.5469 10.1194C34.6271 8.59531 35.1387 7.23308 36.0821 6.0327C37.1654 4.75926 38.5311 3.94884 40.1791 3.60149C40.5376 3.53527 40.8958 3.48797 41.2537 3.45959ZM50.1194 6.37326C51.692 6.2889 53.1504 6.68305 54.4947 7.55575C56.0867 8.66221 57.0749 10.179 57.4595 12.106C57.5911 12.8773 57.5911 13.6467 57.4595 14.4142C57.1941 14.2477 56.9287 14.0963 56.6631 13.9601C54.4753 12.703 52.2942 11.4543 50.1194 10.214C49.9266 10.1063 49.7281 10.0085 49.5245 9.92075C49.2518 9.84949 48.9832 9.86211 48.7186 9.95859C45.6497 11.6826 42.5698 13.4327 39.4787 15.2089C39.4658 14.0169 39.4658 12.825 39.4787 11.633C39.4877 11.6059 39.5036 11.5839 39.5267 11.5668C41.7208 10.3275 43.9084 9.07883 46.0896 7.82063C46.5952 7.53354 47.1068 7.25604 47.6247 6.98816C48.425 6.63326 49.2564 6.4283 50.1194 6.37326ZM32.0426 10.1383C32.0586 13.093 32.0682 16.0508 32.0714 19.0118C32.1211 19.4403 32.3418 19.7587 32.7335 19.9672C35.7491 21.6757 38.7556 23.3847 41.7527 25.0945C40.717 25.6863 39.6807 26.2793 38.6439 26.873C38.6055 26.8857 38.5672 26.8857 38.5288 26.873C38.2824 26.7294 38.0329 26.5907 37.7804 26.4568C35.4005 25.094 33.0209 23.7317 30.6418 22.3701C28.893 21.1902 27.8664 19.5599 27.5618 17.4793C27.3126 15.108 28.0706 13.0993 29.8358 11.4533C30.4998 10.8988 31.2355 10.4605 32.0426 10.1383ZM48.4115 12.106C48.6692 12.2282 48.9154 12.3669 49.1503 12.5222C50.9047 13.4998 52.6605 14.4994 54.4179 15.521C55.012 15.8391 55.6006 16.1671 56.1834 16.5049C58.3271 17.8969 59.4401 19.8615 59.5224 22.3984C59.4854 24.1627 58.8744 25.7142 57.6898 27.0527C56.9226 27.8674 56.0111 28.4666 54.9552 28.8501C54.9585 25.9049 54.9552 22.9598 54.9456 20.0145C54.8925 19.5466 54.6526 19.2091 54.226 19.0023C51.2357 17.3106 48.2484 15.6141 45.2644 13.9128C46.3166 13.3154 47.3657 12.7131 48.4115 12.106ZM43.4989 14.9061C44.856 15.6709 46.2024 16.4403 47.5384 17.2144C47.5512 18.7406 47.5512 20.2667 47.5384 21.793C46.1982 22.5672 44.8549 23.3367 43.5085 24.1012C42.1628 23.3369 40.8195 22.5674 39.4787 21.793C39.4658 20.2667 39.4658 18.7406 39.4787 17.2144C40.8258 16.439 42.166 15.6695 43.4989 14.9061ZM49.2751 18.1982C50.3472 18.794 51.4059 19.3994 52.451 20.0145C52.4638 23.0417 52.4638 26.0689 52.451 29.0961C52.3471 30.4246 51.8993 31.6355 51.1077 32.7287C49.7581 34.4588 47.9638 35.3953 45.725 35.5383C44.1405 35.5639 42.7012 35.1414 41.4073 34.2707C41.2687 34.1678 41.1344 34.0607 41.0043 33.9491C43.5519 32.5195 46.0754 31.0846 48.5746 29.6448C49.0448 29.4134 49.2847 29.0287 49.2942 28.4907C49.3004 25.0595 49.2941 21.6288 49.2751 18.1982ZM47.5096 23.7985C47.5351 24.3881 47.548 24.984 47.548 25.5864C47.5447 26.1824 47.5416 26.7784 47.5384 27.3744C47.5313 27.3918 47.5217 27.4075 47.5096 27.4217C44.8902 28.9175 42.2741 30.4059 39.661 31.8868C38.3108 32.5586 36.9067 32.7824 35.4488 32.5584C35.4296 32.5647 35.4104 32.5711 35.3913 32.5774C32.6813 32.0484 30.8295 30.5253 29.8358 28.0082C29.8422 28.002 29.8487 27.9955 29.855 27.9893C29.4513 26.884 29.352 25.752 29.5576 24.5931C32.1192 26.0659 34.7002 27.5384 37.3006 29.011C37.8205 29.22 38.297 29.1476 38.7303 28.7934C39.9536 28.121 41.1689 27.4334 42.3763 26.7311C44.0662 25.7838 45.7771 24.8064 47.5096 23.7985Z" stroke="#7D7D7D" stroke-width="0.4" mask="url(#path-3-outside-1_83_3)"/>
    </g>
    <path d="M85.1159 23.9526C84.7182 24.0413 84.4661 24.0922 84.3595 24.1051C83.65 24.1919 82.9637 24.0496 82.3005 23.6783C80.6028 22.7289 78.9217 21.785 77.2575 20.8466C75.0175 19.5802 72.792 18.3241 70.5811 17.0782C70.4489 17.0039 70.2912 16.8853 70.1082 16.7224C68.3638 15.169 68.7323 12.3529 70.8372 11.355C71.8205 10.8885 72.8117 10.8818 73.8109 11.3348C74.0112 11.4255 74.2303 11.5384 74.4681 11.6734C78.2263 13.8004 81.9468 15.9021 85.6295 17.9782C86.5665 18.5068 87.234 19.4614 87.311 20.5438C87.4227 22.1077 86.5524 23.3897 85.1159 23.9526Z" fill="#01A050"/>
    <path d="M77.2977 20.771C78.9676 21.7022 80.6545 22.6389 82.3581 23.581C83.0236 23.9494 83.7122 24.0906 84.4242 24.0045C84.5311 23.9917 84.7842 23.9412 85.1832 23.8532C85.0292 23.9645 84.8703 24.0659 84.7064 24.1573C81.2263 26.1009 77.865 27.9769 74.6226 29.7854C73.9983 30.1336 73.5566 30.3435 73.2977 30.4152C70.8321 31.1007 68.3664 28.9012 69.147 26.3494C69.3114 25.8123 69.6032 25.3457 70.0226 24.9496C70.2092 24.773 70.6105 24.5122 71.2264 24.167C73.2395 23.0385 75.2633 21.9065 77.2977 20.771Z" fill="#FFBA02"/>
    <path d="M103.87 30.42C102.16 30.42 100.67 30.015 99.4 29.205C98.14 28.385 97.16 27.215 96.46 25.695C95.76 24.175 95.41 22.35 95.41 20.22C95.41 18.02 95.77 16.175 96.49 14.685C97.22 13.185 98.22 12.055 99.49 11.295C100.77 10.525 102.23 10.14 103.87 10.14C106.14 10.14 107.91 10.69 109.18 11.79C110.46 12.89 111.28 14.32 111.64 16.08L107.86 16.77C107.55 15.75 107.055 14.925 106.375 14.295C105.695 13.665 104.86 13.35 103.87 13.35C103 13.35 102.215 13.605 101.515 14.115C100.815 14.615 100.255 15.375 99.835 16.395C99.425 17.415 99.22 18.69 99.22 20.22C99.22 21.66 99.4 22.9 99.76 23.94C100.13 24.98 100.66 25.78 101.35 26.34C102.04 26.9 102.88 27.18 103.87 27.18C105.14 27.18 106.12 26.845 106.81 26.175C107.51 25.495 107.86 24.63 107.86 23.58H111.64C111.64 25.03 111.325 26.265 110.695 27.285C110.075 28.295 109.185 29.07 108.025 29.61C106.865 30.15 105.48 30.42 103.87 30.42ZM125.794 30V21.48C125.794 20.4 125.534 19.585 125.014 19.035C124.494 18.485 123.814 18.21 122.974 18.21C122.264 18.21 121.634 18.405 121.084 18.795C120.544 19.185 120.119 19.775 119.809 20.565C119.499 21.345 119.344 22.32 119.344 23.49H118.174C118.174 21.6 118.409 20.03 118.879 18.78C119.349 17.52 120.014 16.58 120.874 15.96C121.734 15.34 122.744 15.03 123.904 15.03C125.104 15.03 126.104 15.3 126.904 15.84C127.714 16.37 128.319 17.12 128.719 18.09C129.129 19.06 129.334 20.19 129.334 21.48V30H125.794ZM115.804 30V9.42H119.344V30H115.804ZM143.765 30L143.315 26.46V20.61C143.315 19.59 143.105 18.835 142.685 18.345C142.275 17.855 141.575 17.61 140.585 17.61C140.015 17.61 139.52 17.695 139.1 17.865C138.68 18.035 138.355 18.28 138.125 18.6C137.905 18.91 137.795 19.29 137.795 19.74H133.925C133.925 18.64 134.19 17.745 134.72 17.055C135.25 16.355 136.01 15.845 137 15.525C138 15.195 139.195 15.03 140.585 15.03C141.845 15.03 142.945 15.235 143.885 15.645C144.825 16.045 145.555 16.665 146.075 17.505C146.595 18.345 146.855 19.42 146.855 20.73V30H143.765ZM138.995 30.42C137.745 30.42 136.7 30.205 135.86 29.775C135.03 29.335 134.405 28.76 133.985 28.05C133.565 27.34 133.355 26.57 133.355 25.74C133.355 24.82 133.595 24.05 134.075 23.43C134.565 22.8 135.255 22.33 136.145 22.02C137.035 21.7 138.085 21.54 139.295 21.54C140.085 21.54 140.83 21.6 141.53 21.72C142.24 21.84 142.945 22 143.645 22.2V24.27C143.095 24.09 142.495 23.95 141.845 23.85C141.195 23.75 140.585 23.7 140.015 23.7C139.175 23.7 138.485 23.855 137.945 24.165C137.405 24.475 137.135 25 137.135 25.74C137.135 26.28 137.355 26.745 137.795 27.135C138.235 27.525 138.935 27.72 139.895 27.72C140.625 27.72 141.245 27.56 141.755 27.24C142.265 26.92 142.65 26.52 142.91 26.04C143.18 25.56 143.315 25.08 143.315 24.6H144.155C144.155 25.65 143.96 26.62 143.57 27.51C143.18 28.39 142.6 29.095 141.83 29.625C141.07 30.155 140.125 30.42 138.995 30.42ZM156.964 30.42C156.104 30.42 155.314 30.26 154.594 29.94C153.884 29.62 153.314 29.13 152.884 28.47C152.464 27.81 152.254 26.97 152.254 25.95V11.58H155.794V25.83C155.794 27.03 156.364 27.63 157.504 27.63C157.854 27.63 158.204 27.59 158.554 27.51C158.904 27.43 159.304 27.31 159.754 27.15L160.264 29.64C159.704 29.86 159.159 30.045 158.629 30.195C158.099 30.345 157.544 30.42 156.964 30.42ZM150.214 17.79V15.45H159.754V17.79H150.214Z" fill="#848484"/>
</svg>
