<svg width="14" height="13" viewBox="0 0 14 13" fill="none" xmlns="http://www.w3.org/2000/svg">
    <path d="M13.6257 0.343671C13.4404 0.174248 13.2028 0.0607598 12.9449 0.018446C12.6871 -0.0238678 12.4212 0.00701944 12.1831 0.10696L0.768729 4.90447C0.524496 5.00718 0.320356 5.17566 0.183603 5.38738C0.0468508 5.59909 -0.0159962 5.84396 0.00346515 6.08924C0.0229265 6.33452 0.123769 6.56851 0.292509 6.75994C0.461249 6.95137 0.689844 7.09111 0.947731 7.16047L4.96708 8.2421L5.8906 12.0541C5.94833 12.3008 6.08992 12.5244 6.29509 12.6929C6.50026 12.8615 6.75847 12.9662 7.03272 12.9923C7.08394 12.9972 7.1354 12.9998 7.1869 13C7.43633 13.0005 7.68066 12.9354 7.89081 12.8125C8.10097 12.6896 8.26811 12.5141 8.37233 12.3068L13.8775 1.67409C13.99 1.45552 14.0262 1.21055 13.9811 0.972506C13.9361 0.734462 13.812 0.514896 13.6257 0.343671ZM12.9234 1.26153L7.41818 11.8933C7.39466 11.9387 7.35619 11.9764 7.30814 12.0009C7.2601 12.0254 7.20489 12.0356 7.15021 12.03C7.09554 12.0244 7.04414 12.0034 7.0032 11.9697C6.96225 11.9361 6.93381 11.8917 6.92183 11.8425L5.99198 8.01408L8.40031 5.81025C8.4965 5.71914 8.54972 5.59711 8.54852 5.47045C8.54731 5.34379 8.49178 5.22262 8.39388 5.13306C8.29598 5.04349 8.16354 4.99268 8.0251 4.99158C7.88665 4.99048 7.75327 5.03917 7.65368 5.12717L5.26172 7.31603L1.24395 6.23488C1.19221 6.22112 1.1463 6.1932 1.1124 6.15487C1.07851 6.11654 1.05824 6.06964 1.05434 6.02046C1.05043 5.97129 1.06306 5.9222 1.09054 5.87979C1.11801 5.83737 1.15902 5.80367 1.20805 5.7832L12.624 0.984724C12.6537 0.972362 12.6859 0.965939 12.7185 0.965883C12.7779 0.966046 12.8348 0.987563 12.8769 1.02579C12.9102 1.05588 12.9324 1.09461 12.9408 1.13671C12.9491 1.1788 12.943 1.2227 12.9234 1.26153Z" fill="#F5F5F5"/>
</svg>
